<svg width="337" height="201" viewBox="0 0 337 201" fill="none" xmlns="http://www.w3.org/2000/svg">
<path d="M84.5 201H54V59.75L28.75 85L7.25 63.5L54 16.75H84.5V201Z" fill="url(#paint0_linear_518_42)"/>
<path d="M110.392 157.152C106.382 157.152 102.456 156.811 98.6163 156.128C94.7763 155.445 91.1923 154.464 87.8643 153.184C84.6216 151.904 81.6776 150.283 79.0323 148.32C78.0083 147.552 77.2829 146.699 76.8563 145.76C76.5149 144.736 76.4296 143.755 76.6003 142.816C76.8563 141.792 77.2829 140.939 77.8803 140.256C78.5629 139.573 79.3736 139.189 80.3123 139.104C81.2509 139.019 82.2749 139.317 83.3843 140C87.2243 142.731 91.3203 144.736 95.6723 146.016C100.024 147.211 104.931 147.808 110.392 147.808C118.072 147.808 123.747 146.4 127.416 143.584C131.171 140.683 133.048 136.885 133.048 132.192C133.048 128.352 131.683 125.365 128.952 123.232C126.307 121.013 121.827 119.264 115.512 117.984L102.2 115.296C94.1789 113.589 88.1629 110.816 84.1523 106.976C80.2269 103.051 78.2643 97.8453 78.2643 91.36C78.2643 87.3493 79.0749 83.7227 80.6963 80.48C82.3176 77.152 84.5789 74.336 87.4803 72.032C90.3816 69.6427 93.8376 67.808 97.8483 66.528C101.859 65.248 106.296 64.608 111.16 64.608C116.536 64.608 121.528 65.376 126.136 66.912C130.83 68.3627 135.054 70.5813 138.808 73.568C139.747 74.336 140.387 75.232 140.728 76.256C141.07 77.1947 141.112 78.1333 140.856 79.072C140.6 79.9253 140.131 80.6507 139.448 81.248C138.851 81.8453 138.04 82.1867 137.016 82.272C136.078 82.3573 135.011 82.016 133.816 81.248C130.403 78.688 126.862 76.8533 123.192 75.744C119.523 74.5493 115.47 73.952 111.032 73.952C106.51 73.952 102.584 74.6347 99.2563 76C96.0136 77.3653 93.4536 79.3707 91.5763 82.016C89.7843 84.576 88.8883 87.5627 88.8883 90.976C88.8883 95.072 90.1256 98.3147 92.6003 100.704C95.1603 103.093 99.2989 104.843 105.016 105.952L118.328 108.768C126.947 110.56 133.304 113.291 137.4 116.96C141.582 120.544 143.672 125.451 143.672 131.68C143.672 135.435 142.904 138.891 141.368 142.048C139.832 145.205 137.614 147.936 134.712 150.24C131.811 152.459 128.312 154.165 124.216 155.36C120.12 156.555 115.512 157.152 110.392 157.152ZM183.26 157.152C178.396 157.152 174.3 156.299 170.972 154.592C167.73 152.8 165.298 150.24 163.676 146.912C162.055 143.499 161.244 139.36 161.244 134.496V101.856H152.668C151.218 101.856 150.108 101.515 149.34 100.832C148.572 100.064 148.188 99.04 148.188 97.76C148.188 96.48 148.572 95.4987 149.34 94.816C150.108 94.1333 151.218 93.792 152.668 93.792H161.244V79.072C161.244 77.3653 161.714 76.0853 162.652 75.232C163.591 74.2933 164.871 73.824 166.492 73.824C168.114 73.824 169.351 74.2933 170.204 75.232C171.143 76.0853 171.612 77.3653 171.612 79.072V93.792H187.74C189.191 93.792 190.3 94.1333 191.068 94.816C191.836 95.4987 192.22 96.48 192.22 97.76C192.22 99.04 191.836 100.064 191.068 100.832C190.3 101.515 189.191 101.856 187.74 101.856H171.612V133.472C171.612 138.336 172.636 142.048 174.684 144.608C176.732 147.083 180.06 148.32 184.668 148.32C186.29 148.32 187.655 148.149 188.764 147.808C189.959 147.467 190.94 147.296 191.708 147.296C192.476 147.211 193.116 147.467 193.628 148.064C194.14 148.661 194.396 149.685 194.396 151.136C194.396 152.16 194.183 153.099 193.756 153.952C193.415 154.805 192.775 155.403 191.836 155.744C190.812 156.085 189.447 156.384 187.74 156.64C186.119 156.981 184.626 157.152 183.26 157.152ZM230.457 157.152C223.887 157.152 218.212 155.872 213.433 153.312C208.74 150.667 205.071 146.955 202.425 142.176C199.865 137.397 198.585 131.68 198.585 125.024C198.585 118.539 199.865 112.907 202.425 108.128C204.985 103.264 208.484 99.4667 212.921 96.736C217.444 94.0053 222.649 92.64 228.537 92.64C232.719 92.64 236.473 93.3653 239.801 94.816C243.129 96.1813 245.945 98.1867 248.249 100.832C250.639 103.477 252.431 106.677 253.625 110.432C254.905 114.187 255.545 118.411 255.545 123.104C255.545 124.469 255.161 125.493 254.393 126.176C253.625 126.773 252.516 127.072 251.065 127.072H206.521V120.288H248.633L246.585 121.952C246.585 117.344 245.903 113.461 244.537 110.304C243.172 107.061 241.167 104.587 238.521 102.88C235.961 101.173 232.719 100.32 228.793 100.32C224.441 100.32 220.729 101.344 217.657 103.392C214.671 105.355 212.409 108.128 210.873 111.712C209.337 115.211 208.569 119.307 208.569 124V124.768C208.569 132.619 210.447 138.592 214.201 142.688C218.041 146.784 223.46 148.832 230.457 148.832C233.359 148.832 236.217 148.448 239.033 147.68C241.935 146.912 244.751 145.632 247.481 143.84C248.676 143.072 249.743 142.731 250.681 142.816C251.705 142.816 252.516 143.115 253.113 143.712C253.711 144.224 254.095 144.907 254.265 145.76C254.521 146.528 254.436 147.381 254.009 148.32C253.668 149.259 252.943 150.069 251.833 150.752C249.017 152.8 245.689 154.379 241.849 155.488C238.009 156.597 234.212 157.152 230.457 157.152ZM275.67 179.936C273.964 179.936 272.684 179.467 271.83 178.528C270.977 177.675 270.55 176.395 270.55 174.688V98.144C270.55 96.4373 270.977 95.1573 271.83 94.304C272.684 93.3653 273.921 92.896 275.542 92.896C277.249 92.896 278.529 93.3653 279.382 94.304C280.321 95.1573 280.79 96.4373 280.79 98.144V110.304L279.382 108.512C280.748 103.648 283.436 99.808 287.446 96.992C291.542 94.0907 296.406 92.64 302.038 92.64C307.585 92.64 312.406 93.9627 316.502 96.608C320.684 99.168 323.884 102.88 326.102 107.744C328.406 112.523 329.558 118.24 329.558 124.896C329.558 131.467 328.406 137.184 326.102 142.048C323.884 146.827 320.726 150.539 316.63 153.184C312.534 155.829 307.67 157.152 302.038 157.152C296.406 157.152 291.585 155.744 287.574 152.928C283.564 150.027 280.833 146.187 279.382 141.408H280.918V174.688C280.918 176.395 280.449 177.675 279.51 178.528C278.572 179.467 277.292 179.936 275.67 179.936ZM299.862 148.832C303.788 148.832 307.158 147.893 309.974 146.016C312.876 144.139 315.094 141.408 316.63 137.824C318.252 134.24 319.062 129.931 319.062 124.896C319.062 117.131 317.313 111.2 313.814 107.104C310.401 103.008 305.75 100.96 299.862 100.96C296.022 100.96 292.652 101.899 289.75 103.776C286.849 105.568 284.588 108.256 282.966 111.84C281.43 115.339 280.662 119.691 280.662 124.896C280.662 132.576 282.412 138.507 285.91 142.688C289.409 146.784 294.06 148.832 299.862 148.832Z" fill="url(#paint1_linear_518_42)"/>
<defs>
<linearGradient id="paint0_linear_518_42" x1="0" y1="0" x2="106" y2="201" gradientUnits="userSpaceOnUse">
<stop stop-color="#555555"/>
<stop offset="1"/>
</linearGradient>
<linearGradient id="paint1_linear_518_42" x1="203.21" y1="26" x2="203.21" y2="201" gradientUnits="userSpaceOnUse">
<stop stop-color="#B379FF"/>
<stop offset="1" stop-color="#6D27C8"/>
</linearGradient>
</defs>
</svg>
