<svg width="338" height="203" viewBox="0 0 338 203" fill="none" xmlns="http://www.w3.org/2000/svg">
<path d="M91.75 104C95.5833 104.5 99.5 105.75 103.5 107.75C107.667 109.75 111.5 112.583 115 116.25C118.5 119.917 121.417 124.417 123.75 129.75C126.083 134.917 127.25 140.917 127.25 147.75C127.25 156.083 126 163.333 123.5 169.5C121.167 175.5 118.167 180.5 114.5 184.5C110.833 188.5 106.667 191.75 102 194.25C97.5 196.583 93.0833 198.333 88.75 199.5C84.4167 200.667 80.4167 201.417 76.75 201.75C73.25 202.083 70.5 202.25 68.5 202.25C54.5 202.25 43.4167 201.333 35.25 199.5C27.25 197.5 21.6667 195.5 18.5 193.5L25.25 172C26.75 172.833 28.1667 173.75 29.5 174.75C30.8333 175.75 32.75 176.75 35.25 177.75C37.75 178.583 41.25 179.333 45.75 180C50.25 180.5 56.4167 180.75 64.25 180.75C75.75 180.75 84.3333 177.667 90 171.5C95.6667 165.167 98.5 157.25 98.5 147.75C98.5 138.75 95.9167 131.167 90.75 125C85.5833 118.833 78 115.75 68 115.75H42.5H42.75L42.5 95.5H59.5C63.1667 95.5 66.8333 95.4167 70.5 95.25C74.3333 95.0833 77.9167 94.1667 81.25 92.5C84.5833 90.8333 87.3333 88 89.5 84C91.6667 80 92.75 74.25 92.75 66.75C92.75 63.75 92.5 60.5833 92 57.25C91.5 53.9167 90.0833 50.8333 87.75 48C85.5833 45.1667 82.3333 42.9167 78 41.25C73.6667 39.4167 67.6667 38.5 60 38.5C52.3333 38.5 46.1667 39.25 41.5 40.75C37 42.0833 33.5833 43.1667 31.25 44L22.5 21.5C26.5 20.3333 31.4167 19.0833 37.25 17.75C43.25 16.4167 51.8333 15.75 63 15.75C70.8333 15.75 78.25 16.75 85.25 18.75C92.25 20.5833 98.3333 23.5833 103.5 27.75C108.833 31.9167 113 37.25 116 43.75C119.167 50.25 120.75 57.9167 120.75 66.75C120.75 71.9167 119.833 76.6667 118 81C116.167 85.1667 113.833 88.8333 111 92C108.167 95.1667 105 97.8333 101.5 100C98 102 94.75 103.333 91.75 104Z" fill="url(#paint0_linear_518_55)"/>
<path d="M111.394 157.152C107.384 157.152 103.458 156.811 99.6182 156.128C95.7782 155.445 92.1942 154.464 88.8662 153.184C85.6236 151.904 82.6796 150.283 80.0342 148.32C79.0102 147.552 78.2849 146.699 77.8582 145.76C77.5169 144.736 77.4316 143.755 77.6022 142.816C77.8582 141.792 78.2849 140.939 78.8822 140.256C79.5649 139.573 80.3756 139.189 81.3142 139.104C82.2529 139.019 83.2769 139.317 84.3862 140C88.2262 142.731 92.3222 144.736 96.6742 146.016C101.026 147.211 105.933 147.808 111.394 147.808C119.074 147.808 124.749 146.4 128.418 143.584C132.173 140.683 134.05 136.885 134.05 132.192C134.05 128.352 132.685 125.365 129.954 123.232C127.309 121.013 122.829 119.264 116.514 117.984L103.202 115.296C95.1809 113.589 89.1649 110.816 85.1542 106.976C81.2289 103.051 79.2662 97.8453 79.2662 91.36C79.2662 87.3493 80.0769 83.7227 81.6982 80.48C83.3196 77.152 85.5809 74.336 88.4822 72.032C91.3836 69.6427 94.8396 67.808 98.8502 66.528C102.861 65.248 107.298 64.608 112.162 64.608C117.538 64.608 122.53 65.376 127.138 66.912C131.832 68.3627 136.056 70.5813 139.81 73.568C140.749 74.336 141.389 75.232 141.73 76.256C142.072 77.1947 142.114 78.1333 141.858 79.072C141.602 79.9253 141.133 80.6507 140.45 81.248C139.853 81.8453 139.042 82.1867 138.018 82.272C137.08 82.3573 136.013 82.016 134.818 81.248C131.405 78.688 127.864 76.8533 124.194 75.744C120.525 74.5493 116.472 73.952 112.034 73.952C107.512 73.952 103.586 74.6347 100.258 76C97.0156 77.3653 94.4556 79.3707 92.5782 82.016C90.7862 84.576 89.8902 87.5627 89.8902 90.976C89.8902 95.072 91.1276 98.3147 93.6022 100.704C96.1622 103.093 100.301 104.843 106.018 105.952L119.33 108.768C127.949 110.56 134.306 113.291 138.402 116.96C142.584 120.544 144.674 125.451 144.674 131.68C144.674 135.435 143.906 138.891 142.37 142.048C140.834 145.205 138.616 147.936 135.714 150.24C132.813 152.459 129.314 154.165 125.218 155.36C121.122 156.555 116.514 157.152 111.394 157.152ZM184.262 157.152C179.398 157.152 175.302 156.299 171.974 154.592C168.732 152.8 166.3 150.24 164.678 146.912C163.057 143.499 162.246 139.36 162.246 134.496V101.856H153.67C152.22 101.856 151.11 101.515 150.342 100.832C149.574 100.064 149.19 99.04 149.19 97.76C149.19 96.48 149.574 95.4987 150.342 94.816C151.11 94.1333 152.22 93.792 153.67 93.792H162.246V79.072C162.246 77.3653 162.716 76.0853 163.654 75.232C164.593 74.2933 165.873 73.824 167.494 73.824C169.116 73.824 170.353 74.2933 171.206 75.232C172.145 76.0853 172.614 77.3653 172.614 79.072V93.792H188.742C190.193 93.792 191.302 94.1333 192.07 94.816C192.838 95.4987 193.222 96.48 193.222 97.76C193.222 99.04 192.838 100.064 192.07 100.832C191.302 101.515 190.193 101.856 188.742 101.856H172.614V133.472C172.614 138.336 173.638 142.048 175.686 144.608C177.734 147.083 181.062 148.32 185.67 148.32C187.292 148.32 188.657 148.149 189.766 147.808C190.961 147.467 191.942 147.296 192.71 147.296C193.478 147.211 194.118 147.467 194.63 148.064C195.142 148.661 195.398 149.685 195.398 151.136C195.398 152.16 195.185 153.099 194.758 153.952C194.417 154.805 193.777 155.403 192.838 155.744C191.814 156.085 190.449 156.384 188.742 156.64C187.121 156.981 185.628 157.152 184.262 157.152ZM231.459 157.152C224.889 157.152 219.214 155.872 214.435 153.312C209.742 150.667 206.073 146.955 203.427 142.176C200.867 137.397 199.587 131.68 199.587 125.024C199.587 118.539 200.867 112.907 203.427 108.128C205.987 103.264 209.486 99.4667 213.923 96.736C218.446 94.0053 223.651 92.64 229.539 92.64C233.721 92.64 237.475 93.3653 240.803 94.816C244.131 96.1813 246.947 98.1867 249.251 100.832C251.641 103.477 253.433 106.677 254.627 110.432C255.907 114.187 256.547 118.411 256.547 123.104C256.547 124.469 256.163 125.493 255.395 126.176C254.627 126.773 253.518 127.072 252.067 127.072H207.523V120.288H249.635L247.587 121.952C247.587 117.344 246.905 113.461 245.539 110.304C244.174 107.061 242.169 104.587 239.523 102.88C236.963 101.173 233.721 100.32 229.795 100.32C225.443 100.32 221.731 101.344 218.659 103.392C215.673 105.355 213.411 108.128 211.875 111.712C210.339 115.211 209.571 119.307 209.571 124V124.768C209.571 132.619 211.449 138.592 215.203 142.688C219.043 146.784 224.462 148.832 231.459 148.832C234.361 148.832 237.219 148.448 240.035 147.68C242.937 146.912 245.753 145.632 248.483 143.84C249.678 143.072 250.745 142.731 251.683 142.816C252.707 142.816 253.518 143.115 254.115 143.712C254.713 144.224 255.097 144.907 255.267 145.76C255.523 146.528 255.438 147.381 255.011 148.32C254.67 149.259 253.945 150.069 252.835 150.752C250.019 152.8 246.691 154.379 242.851 155.488C239.011 156.597 235.214 157.152 231.459 157.152ZM276.672 179.936C274.966 179.936 273.686 179.467 272.832 178.528C271.979 177.675 271.552 176.395 271.552 174.688V98.144C271.552 96.4373 271.979 95.1573 272.832 94.304C273.686 93.3653 274.923 92.896 276.544 92.896C278.251 92.896 279.531 93.3653 280.384 94.304C281.323 95.1573 281.792 96.4373 281.792 98.144V110.304L280.384 108.512C281.75 103.648 284.438 99.808 288.448 96.992C292.544 94.0907 297.408 92.64 303.04 92.64C308.587 92.64 313.408 93.9627 317.504 96.608C321.686 99.168 324.886 102.88 327.104 107.744C329.408 112.523 330.56 118.24 330.56 124.896C330.56 131.467 329.408 137.184 327.104 142.048C324.886 146.827 321.728 150.539 317.632 153.184C313.536 155.829 308.672 157.152 303.04 157.152C297.408 157.152 292.587 155.744 288.576 152.928C284.566 150.027 281.835 146.187 280.384 141.408H281.92V174.688C281.92 176.395 281.451 177.675 280.512 178.528C279.574 179.467 278.294 179.936 276.672 179.936ZM300.864 148.832C304.79 148.832 308.16 147.893 310.976 146.016C313.878 144.139 316.096 141.408 317.632 137.824C319.254 134.24 320.064 129.931 320.064 124.896C320.064 117.131 318.315 111.2 314.816 107.104C311.403 103.008 306.752 100.96 300.864 100.96C297.024 100.96 293.654 101.899 290.752 103.776C287.851 105.568 285.59 108.256 283.968 111.84C282.432 115.339 281.664 119.691 281.664 124.896C281.664 132.576 283.414 138.507 286.912 142.688C290.411 146.784 295.062 148.832 300.864 148.832Z" fill="url(#paint1_linear_518_55)"/>
<defs>
<linearGradient id="paint0_linear_518_55" x1="71.5742" y1="0" x2="71.5742" y2="201" gradientUnits="userSpaceOnUse">
<stop stop-color="#555555"/>
<stop offset="1"/>
</linearGradient>
<linearGradient id="paint1_linear_518_55" x1="204.212" y1="26" x2="204.212" y2="201" gradientUnits="userSpaceOnUse">
<stop stop-color="#B379FF"/>
<stop offset="1" stop-color="#6D27C8"/>
</linearGradient>
</defs>
</svg>
