<svg width="662" height="256" viewBox="0 0 662 256" fill="none" xmlns="http://www.w3.org/2000/svg">
<path d="M3.16675 89C2.22808 89 1.50275 88.7653 0.99075 88.296C0.521417 87.784 0.28675 87.0587 0.28675 86.12V46.76C0.28675 45.8213 0.521417 45.1173 0.99075 44.648C1.50275 44.136 2.22808 43.88 3.16675 43.88H18.3348C21.4494 43.88 24.0734 44.3493 26.2068 45.288C28.3828 46.184 30.0468 47.5067 31.1988 49.256C32.3508 51.0053 32.9268 53.1387 32.9268 55.656C32.9268 58.472 32.0948 60.8187 30.4308 62.696C28.8094 64.5733 26.5908 65.8107 23.7748 66.408V65.512C26.9748 65.896 29.4708 67.048 31.2628 68.968C33.0974 70.888 34.0148 73.4267 34.0148 76.584C34.0148 80.5947 32.7134 83.6667 30.1108 85.8C27.5081 87.9333 23.8388 89 19.1028 89H3.16675ZM5.40675 84.776H18.5908C22.0041 84.776 24.5641 84.0933 26.2708 82.728C27.9774 81.3627 28.8308 79.2933 28.8308 76.52C28.8308 73.704 27.9774 71.6347 26.2708 70.312C24.5641 68.9467 22.0041 68.264 18.5908 68.264H5.40675V84.776ZM5.40675 64.04H17.5668C20.8948 64.04 23.4121 63.3573 25.1188 61.992C26.8681 60.6267 27.7428 58.664 27.7428 56.104C27.7428 53.4587 26.8681 51.4747 25.1188 50.152C23.4121 48.7867 20.8948 48.104 17.5668 48.104H5.40675V64.04ZM45.4568 89.448C44.6034 89.448 43.9421 89.2133 43.4728 88.744C43.0461 88.2747 42.8328 87.6133 42.8328 86.76V60.072C42.8328 59.2187 43.0461 58.5787 43.4728 58.152C43.8994 57.6827 44.5181 57.448 45.3288 57.448C46.1394 57.448 46.7581 57.6827 47.1848 58.152C47.6541 58.5787 47.8888 59.2187 47.8888 60.072V65.256H47.2488C47.9314 62.7387 49.2328 60.7973 51.1528 59.432C53.0728 58.0667 55.4408 57.3413 58.2568 57.256C58.8968 57.2133 59.4088 57.3627 59.7928 57.704C60.1768 58.0027 60.3901 58.536 60.4328 59.304C60.4754 60.0293 60.3048 60.6053 59.9208 61.032C59.5368 61.4587 58.9394 61.7147 58.1288 61.8L57.1048 61.928C54.2034 62.184 51.9634 63.1227 50.3848 64.744C48.8488 66.3227 48.0808 68.4987 48.0808 71.272V86.76C48.0808 87.6133 47.8461 88.2747 47.3767 88.744C46.9501 89.2133 46.3101 89.448 45.4568 89.448ZM68.3303 89.32C67.4769 89.32 66.8369 89.0853 66.4103 88.616C65.9836 88.104 65.7703 87.4 65.7703 86.504V60.328C65.7703 59.432 65.9836 58.7493 66.4103 58.28C66.8369 57.8107 67.4769 57.576 68.3303 57.576C69.1409 57.576 69.7809 57.8107 70.2503 58.28C70.7196 58.7493 70.9543 59.432 70.9543 60.328V86.504C70.9543 87.4 70.7196 88.104 70.2503 88.616C69.8236 89.0853 69.1836 89.32 68.3303 89.32ZM68.3303 50.408C67.2636 50.408 66.4316 50.1307 65.8343 49.576C65.2369 48.9787 64.9383 48.1893 64.9383 47.208C64.9383 46.184 65.2369 45.416 65.8343 44.904C66.4316 44.3493 67.2636 44.072 68.3303 44.072C69.4396 44.072 70.2716 44.3493 70.8263 44.904C71.4236 45.416 71.7223 46.184 71.7223 47.208C71.7223 48.1893 71.4236 48.9787 70.8263 49.576C70.2716 50.1307 69.4396 50.408 68.3303 50.408ZM83.2053 89.448C82.3519 89.448 81.7119 89.2133 81.2853 88.744C80.8586 88.2747 80.6453 87.6133 80.6453 86.76V60.072C80.6453 59.2187 80.8586 58.5787 81.2853 58.152C81.7119 57.6827 82.3306 57.448 83.1413 57.448C83.9519 57.448 84.5706 57.6827 84.9973 58.152C85.4666 58.5787 85.7013 59.2187 85.7013 60.072V65.576L84.9973 64.808C85.8933 62.3333 87.3439 60.4773 89.3493 59.24C91.3973 57.96 93.7439 57.32 96.3893 57.32C98.8639 57.32 100.912 57.768 102.533 58.664C104.197 59.56 105.435 60.9253 106.245 62.76C107.056 64.552 107.461 66.8347 107.461 69.608V86.76C107.461 87.6133 107.227 88.2747 106.757 88.744C106.331 89.2133 105.712 89.448 104.901 89.448C104.048 89.448 103.387 89.2133 102.917 88.744C102.491 88.2747 102.277 87.6133 102.277 86.76V69.928C102.277 67.0267 101.701 64.9147 100.549 63.592C99.4399 62.2267 97.6479 61.544 95.1733 61.544C92.3146 61.544 90.0319 62.44 88.3253 64.232C86.6613 65.9813 85.8293 68.328 85.8293 71.272V86.76C85.8293 88.552 84.9546 89.448 83.2053 89.448ZM130.78 101.096C128.519 101.096 126.3 100.819 124.124 100.264C121.991 99.752 120.05 98.92 118.3 97.768C117.788 97.4693 117.447 97.1067 117.276 96.68C117.148 96.2533 117.127 95.8267 117.212 95.4C117.298 95.016 117.49 94.6533 117.788 94.312C118.087 94.0133 118.428 93.8213 118.812 93.736C119.239 93.6507 119.666 93.7147 120.092 93.928C121.97 95.08 123.762 95.8693 125.468 96.296C127.175 96.7227 128.86 96.936 130.524 96.936C133.554 96.936 135.836 96.1253 137.372 94.504C138.951 92.8827 139.74 90.536 139.74 87.464V80.232H140.38C139.74 82.7067 138.375 84.6693 136.284 86.12C134.236 87.5707 131.826 88.296 129.052 88.296C126.194 88.296 123.719 87.656 121.628 86.376C119.538 85.0533 117.916 83.2187 116.764 80.872C115.655 78.5253 115.1 75.816 115.1 72.744C115.1 70.44 115.42 68.3493 116.06 66.472C116.7 64.552 117.618 62.9307 118.812 61.608C120.05 60.2427 121.522 59.1973 123.228 58.472C124.978 57.704 126.919 57.32 129.052 57.32C131.868 57.32 134.3 58.0453 136.348 59.496C138.396 60.904 139.719 62.824 140.316 65.256L139.676 66.024V60.072C139.676 59.2187 139.89 58.5787 140.316 58.152C140.786 57.6827 141.426 57.448 142.236 57.448C143.09 57.448 143.73 57.6827 144.156 58.152C144.583 58.5787 144.796 59.2187 144.796 60.072V86.76C144.796 91.496 143.602 95.0587 141.212 97.448C138.866 99.88 135.388 101.096 130.78 101.096ZM130.012 84.072C132.018 84.072 133.746 83.624 135.196 82.728C136.647 81.7893 137.756 80.4667 138.524 78.76C139.335 77.0533 139.74 75.048 139.74 72.744C139.74 69.288 138.866 66.5573 137.116 64.552C135.367 62.504 132.999 61.48 130.012 61.48C128.05 61.48 126.343 61.9493 124.892 62.888C123.442 63.784 122.311 65.0853 121.5 66.792C120.732 68.456 120.348 70.44 120.348 72.744C120.348 76.2 121.223 78.952 122.972 81C124.722 83.048 127.068 84.072 130.012 84.072ZM185.228 89.448C184.375 89.448 183.714 89.2133 183.244 88.744C182.818 88.232 182.604 87.528 182.604 86.632V65.64L183.756 69.288L167.692 47.144C167.308 46.5893 167.116 46.0347 167.116 45.48C167.159 44.8827 167.394 44.392 167.82 44.008C168.247 43.624 168.802 43.432 169.484 43.432C170.082 43.432 170.615 43.5813 171.084 43.88C171.554 44.136 171.98 44.5627 172.364 45.16L185.996 63.976H184.652L198.284 45.16C198.754 44.52 199.202 44.072 199.628 43.816C200.055 43.56 200.567 43.432 201.164 43.432C201.847 43.432 202.38 43.624 202.764 44.008C203.148 44.3493 203.34 44.8187 203.34 45.416C203.383 45.9707 203.191 46.568 202.764 47.208L186.764 69.288L187.852 65.64V86.632C187.852 88.5093 186.978 89.448 185.228 89.448ZM217.011 89.576C213.981 89.576 211.357 88.9147 209.139 87.592C206.92 86.2693 205.192 84.4133 203.955 82.024C202.76 79.592 202.163 76.7333 202.163 73.448C202.163 70.9733 202.504 68.7547 203.187 66.792C203.869 64.7867 204.872 63.08 206.195 61.672C207.517 60.264 209.075 59.1973 210.867 58.472C212.701 57.704 214.749 57.32 217.011 57.32C220.04 57.32 222.664 57.9813 224.883 59.304C227.101 60.6267 228.808 62.504 230.003 64.936C231.24 67.3253 231.859 70.1627 231.859 73.448C231.859 75.9227 231.517 78.1413 230.835 80.104C230.152 82.0667 229.149 83.7733 227.827 85.224C226.504 86.632 224.925 87.72 223.091 88.488C221.299 89.2133 219.272 89.576 217.011 89.576ZM217.011 85.416C218.931 85.416 220.616 84.9467 222.067 84.008C223.517 83.0693 224.627 81.704 225.395 79.912C226.205 78.12 226.611 75.9653 226.611 73.448C226.611 69.5653 225.736 66.6 223.987 64.552C222.28 62.504 219.955 61.48 217.011 61.48C215.048 61.48 213.341 61.9493 211.891 62.888C210.483 63.784 209.373 65.128 208.563 66.92C207.795 68.6693 207.411 70.8453 207.411 73.448C207.411 77.288 208.285 80.2533 210.035 82.344C211.784 84.392 214.109 85.416 217.011 85.416ZM250.653 89.576C248.136 89.576 246.045 89.128 244.381 88.232C242.76 87.2933 241.523 85.9067 240.669 84.072C239.859 82.2373 239.453 79.9547 239.453 77.224V60.072C239.453 59.176 239.667 58.5147 240.093 58.088C240.563 57.6613 241.203 57.448 242.013 57.448C242.867 57.448 243.507 57.6613 243.933 58.088C244.403 58.5147 244.637 59.176 244.637 60.072V77.16C244.637 79.8907 245.192 81.9387 246.301 83.304C247.453 84.6267 249.245 85.288 251.677 85.288C254.323 85.288 256.477 84.392 258.141 82.6C259.805 80.808 260.637 78.4613 260.637 75.56V60.072C260.637 59.176 260.851 58.5147 261.277 58.088C261.747 57.6613 262.408 57.448 263.261 57.448C264.072 57.448 264.691 57.6613 265.117 58.088C265.587 58.5147 265.821 59.176 265.821 60.072V86.76C265.821 88.552 264.989 89.448 263.325 89.448C262.515 89.448 261.875 89.2133 261.405 88.744C260.979 88.2747 260.765 87.6133 260.765 86.76V80.936L261.597 81.832C260.744 84.3493 259.336 86.2693 257.373 87.592C255.453 88.9147 253.213 89.576 250.653 89.576ZM278.144 89.448C277.291 89.448 276.63 89.2133 276.16 88.744C275.734 88.2747 275.52 87.6133 275.52 86.76V60.072C275.52 59.2187 275.734 58.5787 276.16 58.152C276.587 57.6827 277.206 57.448 278.016 57.448C278.827 57.448 279.446 57.6827 279.872 58.152C280.342 58.5787 280.576 59.2187 280.576 60.072V65.256H279.936C280.619 62.7387 281.92 60.7973 283.84 59.432C285.76 58.0667 288.128 57.3413 290.944 57.256C291.584 57.2133 292.096 57.3627 292.48 57.704C292.864 58.0027 293.078 58.536 293.12 59.304C293.163 60.0293 292.992 60.6053 292.608 61.032C292.224 61.4587 291.627 61.7147 290.816 61.8L289.792 61.928C286.891 62.184 284.651 63.1227 283.072 64.744C281.536 66.3227 280.768 68.4987 280.768 71.272V86.76C280.768 87.6133 280.534 88.2747 280.064 88.744C279.638 89.2133 278.998 89.448 278.144 89.448ZM397 249.576C394.568 249.576 392.52 249.149 390.856 248.296C389.235 247.4 388.019 246.12 387.208 244.456C386.398 242.749 385.992 240.68 385.992 238.248V221.928H381.704C380.979 221.928 380.424 221.757 380.04 221.416C379.656 221.032 379.464 220.52 379.464 219.88C379.464 219.24 379.656 218.749 380.04 218.408C380.424 218.067 380.979 217.896 381.704 217.896H385.992V210.536C385.992 209.683 386.227 209.043 386.696 208.616C387.166 208.147 387.806 207.912 388.616 207.912C389.427 207.912 390.046 208.147 390.472 208.616C390.942 209.043 391.176 209.683 391.176 210.536V217.896H399.24C399.966 217.896 400.52 218.067 400.904 218.408C401.288 218.749 401.48 219.24 401.48 219.88C401.48 220.52 401.288 221.032 400.904 221.416C400.52 221.757 399.966 221.928 399.24 221.928H391.176V237.736C391.176 240.168 391.688 242.024 392.712 243.304C393.736 244.541 395.4 245.16 397.704 245.16C398.515 245.16 399.198 245.075 399.752 244.904C400.35 244.733 400.84 244.648 401.224 244.648C401.608 244.605 401.928 244.733 402.184 245.032C402.44 245.331 402.568 245.843 402.568 246.568C402.568 247.08 402.462 247.549 402.248 247.976C402.078 248.403 401.758 248.701 401.288 248.872C400.776 249.043 400.094 249.192 399.24 249.32C398.43 249.491 397.683 249.576 397 249.576ZM419.511 249.576C416.481 249.576 413.857 248.915 411.639 247.592C409.42 246.269 407.692 244.413 406.455 242.024C405.26 239.592 404.663 236.733 404.663 233.448C404.663 230.973 405.004 228.755 405.687 226.792C406.369 224.787 407.372 223.08 408.695 221.672C410.017 220.264 411.575 219.197 413.367 218.472C415.201 217.704 417.249 217.32 419.511 217.32C422.54 217.32 425.164 217.981 427.383 219.304C429.601 220.627 431.308 222.504 432.503 224.936C433.74 227.325 434.359 230.163 434.359 233.448C434.359 235.923 434.017 238.141 433.335 240.104C432.652 242.067 431.649 243.773 430.327 245.224C429.004 246.632 427.425 247.72 425.591 248.488C423.799 249.213 421.772 249.576 419.511 249.576ZM419.511 245.416C421.431 245.416 423.116 244.947 424.567 244.008C426.017 243.069 427.127 241.704 427.895 239.912C428.705 238.12 429.111 235.965 429.111 233.448C429.111 229.565 428.236 226.6 426.487 224.552C424.78 222.504 422.455 221.48 419.511 221.48C417.548 221.48 415.841 221.949 414.391 222.888C412.983 223.784 411.873 225.128 411.063 226.92C410.295 228.669 409.911 230.845 409.911 233.448C409.911 237.288 410.785 240.253 412.535 242.344C414.284 244.392 416.609 245.416 419.511 245.416ZM468.117 249.576C465.045 249.576 462.699 248.637 461.077 246.76C459.456 244.883 458.645 242.195 458.645 238.696V206.056C458.645 205.203 458.859 204.563 459.285 204.136C459.712 203.667 460.352 203.432 461.205 203.432C462.016 203.432 462.656 203.667 463.125 204.136C463.595 204.563 463.829 205.203 463.829 206.056V238.312C463.829 240.616 464.277 242.344 465.173 243.496C466.112 244.605 467.477 245.16 469.269 245.16C469.653 245.16 469.995 245.139 470.293 245.096C470.592 245.053 470.891 245.032 471.189 245.032C471.659 244.989 471.979 245.096 472.149 245.352C472.363 245.608 472.469 246.12 472.469 246.888C472.469 247.656 472.299 248.232 471.957 248.616C471.616 249 471.061 249.256 470.293 249.384C469.952 249.427 469.589 249.469 469.205 249.512C468.821 249.555 468.459 249.576 468.117 249.576ZM480.143 249.32C479.289 249.32 478.649 249.085 478.223 248.616C477.796 248.104 477.583 247.4 477.583 246.504V220.328C477.583 219.432 477.796 218.749 478.223 218.28C478.649 217.811 479.289 217.576 480.143 217.576C480.953 217.576 481.593 217.811 482.063 218.28C482.532 218.749 482.767 219.432 482.767 220.328V246.504C482.767 247.4 482.532 248.104 482.063 248.616C481.636 249.085 480.996 249.32 480.143 249.32ZM480.143 210.408C479.076 210.408 478.244 210.131 477.647 209.576C477.049 208.979 476.751 208.189 476.751 207.208C476.751 206.184 477.049 205.416 477.647 204.904C478.244 204.349 479.076 204.072 480.143 204.072C481.252 204.072 482.084 204.349 482.639 204.904C483.236 205.416 483.535 206.184 483.535 207.208C483.535 208.189 483.236 208.979 482.639 209.576C482.084 210.131 481.252 210.408 480.143 210.408ZM496.682 249.448C495.871 249.448 495.231 249.213 494.762 248.744C494.335 248.275 494.122 247.613 494.122 246.76V221.928H490.026C489.343 221.928 488.788 221.757 488.362 221.416C487.978 221.032 487.786 220.52 487.786 219.88C487.786 219.24 487.978 218.749 488.362 218.408C488.788 218.067 489.343 217.896 490.026 217.896H495.53L494.122 219.24V216.808C494.122 212.755 495.103 209.661 497.066 207.528C499.071 205.395 501.994 204.157 505.834 203.816L507.69 203.624C508.287 203.581 508.756 203.688 509.098 203.944C509.482 204.2 509.716 204.52 509.802 204.904C509.93 205.288 509.951 205.693 509.866 206.12C509.78 206.504 509.588 206.845 509.29 207.144C508.991 207.443 508.628 207.613 508.202 207.656L506.73 207.784C504.127 207.997 502.228 208.787 501.034 210.152C499.882 211.517 499.306 213.523 499.306 216.168V218.856L498.538 217.896H506.218C506.943 217.896 507.498 218.067 507.882 218.408C508.266 218.749 508.458 219.24 508.458 219.88C508.458 220.52 508.266 221.032 507.882 221.416C507.498 221.757 506.943 221.928 506.218 221.928H499.306V246.76C499.306 248.552 498.431 249.448 496.682 249.448ZM526.911 249.576C523.626 249.576 520.789 248.936 518.399 247.656C516.053 246.333 514.218 244.477 512.895 242.088C511.615 239.699 510.975 236.84 510.975 233.512C510.975 230.269 511.615 227.453 512.895 225.064C514.175 222.632 515.925 220.733 518.143 219.368C520.405 218.003 523.007 217.32 525.951 217.32C528.042 217.32 529.919 217.683 531.583 218.408C533.247 219.091 534.655 220.093 535.807 221.416C537.002 222.739 537.898 224.339 538.495 226.216C539.135 228.093 539.455 230.205 539.455 232.552C539.455 233.235 539.263 233.747 538.879 234.088C538.495 234.387 537.941 234.536 537.215 234.536H514.943V231.144H535.999L534.975 231.976C534.975 229.672 534.634 227.731 533.951 226.152C533.269 224.531 532.266 223.293 530.943 222.44C529.663 221.587 528.042 221.16 526.079 221.16C523.903 221.16 522.047 221.672 520.511 222.696C519.018 223.677 517.887 225.064 517.119 226.856C516.351 228.605 515.967 230.653 515.967 233V233.384C515.967 237.309 516.906 240.296 518.783 242.344C520.703 244.392 523.413 245.416 526.911 245.416C528.362 245.416 529.791 245.224 531.199 244.84C532.65 244.456 534.058 243.816 535.423 242.92C536.021 242.536 536.554 242.365 537.023 242.408C537.535 242.408 537.941 242.557 538.239 242.856C538.538 243.112 538.73 243.453 538.815 243.88C538.943 244.264 538.901 244.691 538.687 245.16C538.517 245.629 538.154 246.035 537.599 246.376C536.191 247.4 534.527 248.189 532.607 248.744C530.687 249.299 528.789 249.576 526.911 249.576ZM549.454 249.256C548.387 249.256 547.534 248.936 546.894 248.296C546.254 247.613 545.934 246.76 545.934 245.736C545.934 244.712 546.254 243.88 546.894 243.24C547.534 242.557 548.387 242.216 549.454 242.216C550.52 242.216 551.352 242.557 551.95 243.24C552.59 243.88 552.91 244.712 552.91 245.736C552.91 246.76 552.59 247.613 551.95 248.296C551.352 248.936 550.52 249.256 549.454 249.256Z" fill="black"/>
<path d="M326.811 102.184C323.227 102.184 320.113 101.501 317.467 100.136C313.969 98.5147 312.219 96.04 312.219 92.712C312.219 89.128 314.139 86.3973 317.979 84.52C319.43 83.6667 321.009 83.0693 322.715 82.728C324.507 82.3867 326.342 82.216 328.219 82.216C328.987 82.216 329.371 82.344 329.371 82.6C329.371 82.856 328.987 82.984 328.219 82.984C324.977 82.984 322.161 83.6667 319.771 85.032C316.699 86.568 315.163 88.872 315.163 91.944C315.163 94.504 316.315 96.5093 318.619 97.96C320.667 99.24 323.014 99.88 325.659 99.88C332.998 99.88 339.654 96.552 345.627 89.896C347.675 87.6773 349.766 84.9467 351.899 81.704C354.033 78.4613 356.166 74.7067 358.299 70.44C359.238 68.5627 360.518 65.9173 362.139 62.504C363.761 59.0053 365.723 54.6533 368.027 49.448C369.99 45.0107 371.825 41.0853 373.531 37.672C375.238 34.2587 376.774 31.3147 378.139 28.84L369.563 26.92C368.71 30.6747 367.686 34.5573 366.491 38.568C365.382 42.4933 364.059 46.5467 362.523 50.728C360.902 55.4213 359.153 59.816 357.275 63.912C355.398 68.008 353.478 71.848 351.515 75.432C344.859 87.0373 338.758 92.84 333.211 92.84C331.419 92.84 330.523 92.4133 330.523 91.56C330.523 91.1333 330.737 90.92 331.163 90.92C331.334 90.92 331.505 90.92 331.675 90.92C331.846 91.0053 332.017 91.048 332.187 91.048C332.529 91.2187 332.87 91.304 333.211 91.304C339.953 91.304 347.334 82.0453 355.355 63.528C358.171 57.2133 360.646 50.984 362.779 44.84C364.913 38.696 366.705 32.6373 368.155 26.664C355.441 23.9333 345.798 22.568 339.227 22.568C325.489 22.568 318.619 27.304 318.619 36.776C318.619 43.0907 322.246 48.7227 329.499 53.672C329.841 53.928 330.011 54.1413 330.011 54.312C330.011 54.568 329.841 54.696 329.499 54.696C329.414 54.696 329.201 54.6107 328.859 54.44C319.302 48.9787 314.523 42.4507 314.523 34.856C314.523 29.48 317.126 25.512 322.331 22.952C324.294 22.0133 326.513 21.3307 328.987 20.904C331.462 20.392 334.235 20.136 337.307 20.136C340.891 20.136 345.286 20.4773 350.491 21.16C355.697 21.8427 361.798 22.8667 368.795 24.232C369.051 22.952 369.265 21.5867 369.435 20.136C369.691 18.6 369.905 16.9787 370.075 15.272C370.246 14.4187 370.502 13.864 370.843 13.608C371.099 13.6933 371.227 14.5467 371.227 16.168C371.227 17.192 371.142 18.4293 370.971 19.88C370.801 21.2453 370.545 22.7813 370.203 24.488L379.547 26.28C387.142 13.5653 395.505 7.20799 404.635 7.20799C410.182 7.20799 412.955 9.51199 412.955 14.12C412.955 14.9733 412.785 15.4 412.443 15.4C412.102 15.4 411.931 15.0587 411.931 14.376C411.931 11.048 409.713 9.384 405.275 9.384C399.131 9.384 392.646 15.4 385.819 27.432C390.257 28.2853 394.097 28.9253 397.339 29.352C400.667 29.6933 403.441 29.864 405.659 29.864C413.937 29.864 418.075 27.816 418.075 23.72C418.075 23.1227 417.99 22.568 417.819 22.056C417.478 21.7147 417.307 21.416 417.307 21.16C417.307 20.904 417.393 20.776 417.563 20.776C418.075 20.776 418.587 21.5013 419.099 22.952C419.441 23.976 419.611 24.9147 419.611 25.768C419.611 30.9733 415.43 33.576 407.067 33.576C402.289 33.576 394.651 32.424 384.155 30.12C383.558 31.4 382.278 34.0027 380.315 37.928C378.353 41.8533 375.793 47.1013 372.635 53.672C369.222 60.84 366.022 66.984 363.035 72.104C360.134 77.224 357.489 81.3627 355.099 84.52C346.31 96.296 336.881 102.184 326.811 102.184ZM392.087 91.432C386.029 91.432 382.999 87.5067 382.999 79.656C382.999 78.4613 383.042 77.1813 383.127 75.816C383.298 74.3653 383.554 72.8293 383.895 71.208C383.554 70.952 383.213 70.6107 382.871 70.184C382.53 69.672 382.189 69.0747 381.847 68.392C382.189 68.4773 382.53 68.648 382.871 68.904C383.298 69.0747 383.81 69.2453 384.407 69.416C385.346 65.1493 387.906 60.9253 392.087 56.744C396.61 52.136 400.877 49.832 404.887 49.832C405.826 49.832 406.295 49.96 406.295 50.216C406.295 50.3867 405.698 50.8133 404.503 51.496C401.346 53.2027 398.402 55.848 395.671 59.432C392.77 63.016 390.679 66.6 389.399 70.184C389.485 70.2693 389.527 70.312 389.527 70.312C389.527 70.312 389.57 70.3547 389.655 70.44C393.751 70.44 398.018 68.4773 402.455 64.552C406.893 60.6267 409.111 56.616 409.111 52.52C409.111 51.3253 408.77 50.1733 408.087 49.064C407.49 48.04 406.551 47.528 405.271 47.528C403.65 47.528 401.73 48.168 399.511 49.448C397.378 50.8133 396.183 51.496 395.927 51.496C395.757 51.496 395.671 51.4533 395.671 51.368C395.671 50.344 397.165 49.2347 400.151 48.04C402.711 47.016 404.717 46.504 406.167 46.504C408.215 46.504 409.837 47.0587 411.031 48.168C412.397 49.2773 413.079 50.8133 413.079 52.776C413.079 57.2987 410.135 61.6933 404.247 65.96C398.957 69.7147 393.837 71.8053 388.887 72.232C388.205 74.28 387.863 76.2427 387.863 78.12C387.863 85.2027 390.423 88.744 395.543 88.744C399.469 88.744 403.565 87.0373 407.831 83.624C411.415 80.808 414.402 77.3947 416.791 73.384C417.559 72.1893 418.199 71.592 418.711 71.592C418.797 71.592 418.839 71.6773 418.839 71.848C418.839 72.1893 418.498 72.9573 417.815 74.152C415.17 78.3333 411.458 82.1733 406.679 85.672C401.474 89.512 396.61 91.432 392.087 91.432ZM427.789 89C423.523 89 421.389 86.824 421.389 82.472C421.389 77.7787 423.565 69.544 427.917 57.768C425.784 60.6693 424.291 62.12 423.437 62.12C423.181 62.12 423.053 61.992 423.053 61.736C423.053 61.6507 424.163 60.1573 426.381 57.256C427.491 55.8053 428.344 54.696 428.941 53.928C429.624 53.0747 430.008 52.52 430.093 52.264C430.52 51.0693 431.117 49.5333 431.885 47.656C432.653 45.7787 433.549 43.6453 434.573 41.256C436.365 36.9893 438.243 32.7227 440.205 28.456C442.253 24.104 444.344 19.752 446.477 15.4C447.16 13.9493 448.013 12.2 449.037 10.152C450.147 8.10399 451.427 5.75733 452.877 3.112C453.645 1.66133 455.395 0.935997 458.125 0.935997C459.661 0.935997 460.429 1.32 460.429 2.088C460.429 2.34399 460.387 2.55733 460.301 2.728C458.765 6.14133 456.461 11.2613 453.389 18.088C453.048 18.7707 452.664 19.624 452.237 20.648C451.811 21.672 451.256 22.8667 450.573 24.232C449.976 24.5733 449.208 25.2133 448.269 26.152C448.269 26.152 447.8 27.048 446.861 28.84C445.923 30.632 444.557 33.2773 442.765 36.776C430.733 60.1573 424.717 75.432 424.717 82.6C424.717 85.416 425.656 86.824 427.533 86.824C429.667 86.824 432.184 85.6293 435.085 83.24C438.072 80.7653 439.48 79.528 439.309 79.528C439.651 79.528 439.821 79.6987 439.821 80.04C439.821 80.2107 439.651 80.552 439.309 81.064C435.555 86.3547 431.715 89 427.789 89ZM450.712 91.432C444.654 91.432 441.624 87.5067 441.624 79.656C441.624 78.4613 441.667 77.1813 441.752 75.816C441.923 74.3653 442.179 72.8293 442.52 71.208C442.179 70.952 441.838 70.6107 441.496 70.184C441.155 69.672 440.814 69.0747 440.472 68.392C440.814 68.4773 441.155 68.648 441.496 68.904C441.923 69.0747 442.435 69.2453 443.032 69.416C443.971 65.1493 446.531 60.9253 450.712 56.744C455.235 52.136 459.502 49.832 463.512 49.832C464.451 49.832 464.92 49.96 464.92 50.216C464.92 50.3867 464.323 50.8133 463.128 51.496C459.971 53.2027 457.027 55.848 454.296 59.432C451.395 63.016 449.304 66.6 448.024 70.184C448.11 70.2693 448.152 70.312 448.152 70.312C448.152 70.312 448.195 70.3547 448.28 70.44C452.376 70.44 456.643 68.4773 461.08 64.552C465.518 60.6267 467.736 56.616 467.736 52.52C467.736 51.3253 467.395 50.1733 466.712 49.064C466.115 48.04 465.176 47.528 463.896 47.528C462.275 47.528 460.355 48.168 458.136 49.448C456.003 50.8133 454.808 51.496 454.552 51.496C454.382 51.496 454.296 51.4533 454.296 51.368C454.296 50.344 455.79 49.2347 458.776 48.04C461.336 47.016 463.342 46.504 464.792 46.504C466.84 46.504 468.462 47.0587 469.656 48.168C471.022 49.2773 471.704 50.8133 471.704 52.776C471.704 57.2987 468.76 61.6933 462.872 65.96C457.582 69.7147 452.462 71.8053 447.512 72.232C446.83 74.28 446.488 76.2427 446.488 78.12C446.488 85.2027 449.048 88.744 454.168 88.744C458.094 88.744 462.19 87.0373 466.456 83.624C470.04 80.808 473.027 77.3947 475.416 73.384C476.184 72.1893 476.824 71.592 477.336 71.592C477.422 71.592 477.464 71.6773 477.464 71.848C477.464 72.1893 477.123 72.9573 476.44 74.152C473.795 78.3333 470.083 82.1733 465.304 85.672C460.099 89.512 455.235 91.432 450.712 91.432ZM455.438 147.112C439.652 147.112 431.758 142.376 431.758 132.904C431.758 132.307 431.801 131.709 431.886 131.112C431.886 130.6 431.929 130.045 432.014 129.448C432.27 127.827 432.996 126.035 434.19 124.072C435.385 122.109 436.964 119.976 438.926 117.672C452.068 102.312 471.396 94.3333 496.91 93.736L492.686 83.112C488.505 86.696 484.708 88.488 481.294 88.488C478.222 88.488 476.686 86.824 476.686 83.496C476.686 77.2667 480.185 70.3547 487.182 62.76C487.097 61.992 487.012 61.2667 486.926 60.584C486.926 59.816 486.926 59.0907 486.926 58.408C486.926 53.2027 487.908 48.7227 489.87 44.968C492.345 40.1893 495.929 37.8 500.622 37.8C501.134 37.8 501.604 37.8427 502.03 37.928C502.542 37.928 503.012 37.9707 503.438 38.056C505.401 38.4827 506.894 40.0613 507.918 42.792C508.857 45.352 509.198 47.656 508.942 49.704C514.062 46.632 516.622 42.92 516.622 38.568C516.622 37.032 516.793 36.264 517.134 36.264C517.988 36.264 518.414 37.7573 518.414 40.744C518.414 46.4613 515.172 50.856 508.686 53.928C508.174 58.3653 506.596 63.2293 503.95 68.52C501.134 74.2373 498.148 78.376 494.99 80.936C495.844 82.3013 496.825 84.0507 497.934 86.184C499.129 88.3173 500.494 90.8347 502.03 93.736C508.857 93.8213 514.105 94.2053 517.774 94.888C519.14 95.144 519.822 95.4853 519.822 95.912C519.822 96.5093 519.14 96.808 517.774 96.808C516.238 96.808 513.849 96.68 510.606 96.424C508.985 96.2533 507.534 96.1253 506.254 96.04C505.06 95.9547 504.036 95.912 503.182 95.912C506.084 101.715 507.534 106.749 507.534 111.016C507.534 121.171 501.134 129.96 488.334 137.384C477.241 143.869 466.276 147.112 455.438 147.112ZM489.102 61.352C489.956 60.4987 490.937 59.6453 492.046 58.792C493.241 57.9387 494.564 57.0853 496.014 56.232C497.294 55.464 498.574 54.7387 499.854 54.056C501.134 53.288 502.372 52.5627 503.566 51.88C503.652 51.1973 503.694 50.5147 503.694 49.832C503.78 49.1493 503.822 48.5093 503.822 47.912C503.822 42.8773 502.628 40.36 500.238 40.36C498.19 40.36 496.1 41.9387 493.966 45.096C492.26 47.5707 491.022 50.0453 490.254 52.52C489.401 54.9947 488.974 57.4693 488.974 59.944C488.974 60.6267 489.017 61.096 489.102 61.352ZM493.966 78.76C494.99 77.8213 496.014 76.456 497.038 74.664C498.148 72.7867 499.214 70.5253 500.238 67.88C501.262 65.32 501.988 63.016 502.414 60.968C502.926 58.92 503.182 57.128 503.182 55.592C496.953 58.4933 492.302 61.352 489.23 64.168C489.572 66.3867 490.126 68.7333 490.894 71.208C491.748 73.5973 492.772 76.1147 493.966 78.76ZM482.702 84.136C485.86 84.136 488.889 82.984 491.79 80.68C490.34 77.096 489.444 74.7493 489.102 73.64C488.676 72.1893 488.334 70.8667 488.078 69.672C487.822 68.4773 487.609 67.3253 487.438 66.216C482.66 72.5307 480.27 77.2667 480.27 80.424C480.27 82.8987 481.081 84.136 482.702 84.136ZM455.31 145.192C464.612 145.192 474.425 141.48 484.75 134.056C495.844 126.12 501.39 117.715 501.39 108.84C501.39 106.195 500.196 101.928 497.806 96.04C491.065 96.3813 484.75 97.1493 478.862 98.344C473.06 99.624 467.641 101.331 462.606 103.464C449.806 108.925 441.401 116.947 437.39 127.528C436.793 128.979 436.494 130.429 436.494 131.88C436.494 136.061 438.67 139.432 443.022 141.992C446.692 144.125 450.788 145.192 455.31 145.192ZM522.794 90.664C522.197 90.664 521.429 90.408 520.49 89.896C519.552 89.2133 519.082 88.6587 519.082 88.232C519.338 87.72 519.552 87.1653 519.722 86.568C519.978 85.9707 520.277 85.3733 520.618 84.776C522.154 81.5333 523.562 78.2907 524.842 75.048C526.122 71.8053 527.189 68.5627 528.042 65.32C528.896 62.248 529.322 58.6213 529.322 54.44C529.152 55.2933 528.597 56.5733 527.658 58.28C526.805 59.9013 525.653 61.9493 524.202 64.424C522.837 66.8133 521.6 68.8187 520.49 70.44C519.466 71.976 518.613 73.2133 517.93 74.152C517.93 74.2373 517.845 74.28 517.674 74.28C517.248 74.28 517.034 74.1093 517.034 73.768C517.034 73.5973 517.077 73.4693 517.162 73.384C517.76 72.4453 518.357 71.464 518.954 70.44C519.637 69.416 520.362 68.3067 521.13 67.112C523.434 63.3573 525.269 59.9867 526.634 57C528 54.0133 528.981 51.368 529.578 49.064C530.09 46.8453 530.944 45.736 532.138 45.736C533.504 45.736 534.186 47.4427 534.186 50.856C534.186 57 532.224 64.552 528.298 73.512C532.906 67.7093 536.106 63.8693 537.898 61.992C542.762 56.7867 546.56 54.184 549.29 54.184C552.021 54.184 553.386 55.976 553.386 59.56C553.386 62.0347 552.704 64.2107 551.338 66.088C549.717 68.4773 548.224 69.672 546.858 69.672C546.602 69.672 546.474 69.5013 546.474 69.16C546.474 69.16 546.944 68.0933 547.882 65.96C548.821 63.8267 549.29 61.992 549.29 60.456C549.29 58.152 548.565 57 547.114 57C545.152 57 541.824 59.6027 537.13 64.808C533.376 69.0747 530.645 72.7013 528.938 75.688C528.853 75.944 528.469 76.968 527.786 78.76C527.104 80.552 526.08 83.1973 524.714 86.696C524.544 87.208 524.33 87.8053 524.074 88.488C523.904 89.0853 523.69 89.7253 523.434 90.408C523.264 90.5787 523.05 90.664 522.794 90.664ZM578.512 90.792C576.208 90.792 574.416 89.5973 573.136 87.208C572.112 85.2453 571.6 82.984 571.6 80.424C571.6 79.144 571.686 77.736 571.856 76.2C572.112 74.5787 572.454 72.8293 572.88 70.952C567.504 82.8987 561.958 88.872 556.24 88.872C552.742 88.872 550.992 86.6107 550.992 82.088C550.992 74.8347 554.491 67.3253 561.488 59.56C568.571 51.624 575.611 47.656 582.608 47.656C585.936 47.656 587.6 49.1067 587.6 52.008C587.6 55.592 585.211 59.176 580.432 62.76C577.958 68.904 576.72 75.2187 576.72 81.704C576.72 86.568 577.787 89 579.92 89C582.736 89 587.856 83.624 595.28 72.872C595.792 72.1893 596.176 71.848 596.432 71.848C596.688 71.848 596.816 72.0187 596.816 72.36C596.816 72.7867 596.646 73.2133 596.304 73.64C588.624 85.0747 582.694 90.792 578.512 90.792ZM556.752 84.904C562.128 84.904 567.334 78.9307 572.368 66.984C571.686 67.1547 571.046 67.3253 570.448 67.496C569.936 67.5813 569.467 67.624 569.04 67.624C568.699 67.624 568.528 67.496 568.528 67.24C568.528 66.8133 569.126 66.3867 570.32 65.96C570.747 65.704 571.302 65.4053 571.984 65.064C572.667 64.6373 573.435 64.168 574.288 63.656C574.459 62.2053 575.355 60.328 576.976 58.024C578.598 55.6347 580.134 54.44 581.584 54.44C582.096 54.44 582.352 54.824 582.352 55.592C582.352 56.1893 582.139 57.128 581.712 58.408C583.078 56.5307 583.76 54.696 583.76 52.904C583.76 50.9413 582.864 49.96 581.072 49.96C576.806 49.96 571.216 54.1413 564.304 62.504C557.392 70.952 553.936 77.4373 553.936 81.96C553.936 83.9227 554.875 84.904 556.752 84.904ZM598.237 89.896C597.469 89.896 597.085 89.5547 597.085 88.872C597.085 88.7867 597.085 88.7013 597.085 88.616C597.171 88.5307 597.256 88.4027 597.341 88.232V88.104C597.341 87.6773 597.469 87.1653 597.725 86.568C599.176 82.984 600.456 78.0773 601.565 71.848C601.821 70.3973 601.949 68.2213 601.949 65.32C601.949 64.296 601.821 62.7173 601.565 60.584C601.395 59.4747 601.267 58.536 601.181 57.768C601.096 57 601.053 56.36 601.053 55.848C601.053 55.2507 601.395 54.824 602.077 54.568C602.76 54.3973 603.571 54.184 604.509 53.928C605.448 53.672 606.515 53.3733 607.709 53.032C608.989 50.1307 611.123 48.68 614.109 48.68C615.389 48.68 615.816 49.192 615.389 50.216C616.413 49.7893 617.181 49.448 617.693 49.192C618.205 48.936 618.461 48.808 618.461 48.808C618.632 48.808 618.717 48.936 618.717 49.192C618.717 49.96 617.352 50.9413 614.621 52.136C613.171 55.5493 611.421 59.8587 609.373 65.064C607.411 70.184 605.107 76.2427 602.461 83.24C605.107 80.2533 607.368 77.5653 609.245 75.176C611.208 72.7867 612.829 70.7387 614.109 69.032C615.048 67.3253 616.285 65.192 617.821 62.632C619.443 60.072 621.363 57.2133 623.581 54.056C624.605 52.52 626.397 51.752 628.957 51.752C631.347 51.752 632.541 52.6907 632.541 54.568C632.541 55.336 631.56 58.1947 629.597 63.144C627.208 69.032 626.013 72.1467 626.013 72.488C628.232 70.5253 630.323 68.3493 632.285 65.96C634.333 63.4853 636.253 60.84 638.045 58.024C638.387 57.4267 638.728 57.128 639.069 57.128C639.325 57.128 639.453 57.3413 639.453 57.768C639.453 58.8773 637.192 62.5467 632.669 68.776C631.304 70.6533 629.896 72.5307 628.445 74.408C626.995 76.2853 625.544 78.1627 624.093 80.04C623.837 80.4667 623.283 80.68 622.429 80.68C621.832 80.68 621.533 80.3813 621.533 79.784C621.533 79.3573 621.661 78.5893 621.917 77.48C622.173 76.3707 622.515 74.8773 622.941 73C623.283 71.6347 623.624 70.312 623.965 69.032C624.307 67.6667 624.648 66.3013 624.989 64.936C625.416 63.4 625.672 61.9493 625.757 60.584C625.928 59.2187 626.013 57.9387 626.013 56.744C623.027 61.2667 619.101 66.344 614.237 71.976C612.104 74.3653 609.971 76.7547 607.837 79.144C605.789 81.5333 603.699 83.9653 601.565 86.44C601.309 88.744 600.2 89.896 598.237 89.896ZM653.917 87.976C649.224 87.976 645.555 84.8613 642.909 78.632C640.776 73.8533 639.709 68.776 639.709 63.4C639.709 61.7787 639.795 60.3707 639.965 59.176C640.136 57.9813 640.392 57.0427 640.733 56.36C641.245 55.4213 642.568 54.952 644.701 54.952C645.725 54.952 646.237 55.1227 646.237 55.464C646.067 55.6347 645.853 56.5733 645.597 58.28C645.341 59.9013 645.213 61.6933 645.213 63.656C645.213 65.8747 645.384 68.0933 645.725 70.312C646.067 72.5307 646.621 74.7493 647.389 76.968C649.437 82.856 652.296 85.8 655.965 85.8C656.733 85.8 657.501 85.6293 658.269 85.288C659.379 84.8613 660.104 84.648 660.445 84.648C660.872 84.648 661.085 84.776 661.085 85.032C661.085 85.7147 660.147 86.3547 658.269 86.952C656.221 87.6347 654.771 87.976 653.917 87.976ZM603.997 63.144C604.424 61.6933 604.893 60.2853 605.405 58.92C605.917 57.5547 606.387 56.3173 606.813 55.208C606.472 55.2933 606.003 55.464 605.405 55.72C604.808 55.8907 604.125 56.104 603.357 56.36C603.528 57.4693 603.656 58.5787 603.741 59.688C603.912 60.7973 603.997 61.9493 603.997 63.144ZM646.237 55.464V55.72V55.464ZM111.448 250.536C107.437 250.536 103.81 248.872 100.568 245.544C97.4104 242.131 95.8317 238.419 95.8317 234.408C95.8317 231.763 96.5144 230.44 97.8798 230.44C98.7331 230.44 99.5864 231.08 100.44 232.36C103 226.387 106.626 219.645 111.32 212.136C114.306 207.528 117.805 205.224 121.816 205.224C122.669 205.224 123.65 205.523 124.76 206.12C125.954 206.803 126.552 207.528 126.552 208.296C126.552 208.893 125.997 209.192 124.888 209.192C124.802 209.192 124.674 209.192 124.504 209.192C124.333 209.192 124.12 209.149 123.864 209.064H122.84C120.877 209.064 119.213 209.619 117.848 210.728C116.397 211.923 115.672 213.416 115.672 215.208C115.672 215.891 115.8 216.616 116.056 217.384C116.568 219.091 117.08 220.797 117.592 222.504C118.104 224.211 118.616 225.917 119.128 227.624C119.725 229.672 120.152 231.592 120.408 233.384C120.749 235.091 120.92 236.669 120.92 238.12C123.224 237.779 125.186 236.925 126.808 235.56C127.832 234.707 129.197 233 130.904 230.44C131.16 230.099 131.416 229.928 131.672 229.928C131.928 229.928 132.056 230.099 132.056 230.44C132.056 230.781 131.97 231.08 131.8 231.336C128.898 236.2 125.314 239.059 121.048 239.912C120.792 242.899 119.896 245.373 118.36 247.336C116.738 249.469 114.434 250.536 111.448 250.536ZM115.672 239.784C115.757 239.443 115.8 239.144 115.8 238.888C115.8 238.632 115.8 238.333 115.8 237.992C115.8 236.883 115.586 235.389 115.16 233.512C114.818 231.549 114.306 229.16 113.624 226.344C112.344 220.968 111.874 217.384 112.216 215.592C109.997 217.896 106.37 224.04 101.336 234.024C102.957 234.877 104.322 235.645 105.432 236.328C106.626 236.925 107.565 237.395 108.248 237.736C110.808 238.931 113.282 239.613 115.672 239.784ZM108.76 246.312C112.173 246.312 114.434 244.648 115.544 241.32C108.717 241.32 103.512 239.912 99.9278 237.096C100.098 239.059 101.122 241.064 103 243.112C104.877 245.245 106.797 246.312 108.76 246.312ZM145.996 252.072C141.729 252.072 139.596 249.469 139.596 244.264C139.596 240.509 140.534 235.859 142.412 230.312C142.07 229.203 141.473 228.221 140.62 227.368C139.766 226.429 138.657 225.661 137.292 225.064C136.182 224.552 135.03 224.083 133.836 223.656C132.726 223.229 131.574 222.76 130.38 222.248C129.27 221.736 128.716 220.84 128.716 219.56C128.716 218.195 129.313 217.384 130.508 217.128H133.964C138.486 217.128 143.222 216.616 148.172 215.592L148.3 215.336L156.748 196.648C157.174 195.709 157.686 194.515 158.284 193.064C158.881 191.613 159.606 189.949 160.46 188.072C161.142 186.536 162.806 185.768 165.452 185.768C167.244 185.768 168.14 186.195 168.14 187.048C168.14 187.304 166.561 190.888 163.404 197.8C160.161 204.968 158.369 208.723 158.028 209.064C157.857 209.235 157.558 209.533 157.132 209.96C156.79 210.301 156.364 210.685 155.852 211.112C155.51 211.709 154.998 212.733 154.316 214.184C155.596 213.757 157.772 213.032 160.844 212.008C164.001 210.899 168.054 209.491 173.004 207.784C173.345 207.699 173.644 207.656 173.9 207.656C174.156 207.571 174.326 207.528 174.412 207.528C174.753 207.528 174.924 207.613 174.924 207.784C174.924 209.235 167.713 212.008 153.292 216.104C151.585 219.432 150.134 222.291 148.94 224.68C147.745 226.984 146.849 228.861 146.252 230.312C145.142 233.043 144.289 235.688 143.692 238.248C143.18 240.723 142.924 243.155 142.924 245.544C142.924 248.36 143.862 249.768 145.74 249.768C148.044 249.768 151.073 248.147 154.828 244.904C156.79 243.197 158.241 241.96 159.18 241.192C160.118 240.339 160.588 239.912 160.588 239.912C160.844 239.912 160.972 240.04 160.972 240.296C160.972 240.552 160.844 240.936 160.588 241.448C159.222 243.496 157.046 245.672 154.06 247.976C150.561 250.707 147.873 252.072 145.996 252.072ZM142.924 228.52C143.521 226.813 144.161 225.064 144.844 223.272C145.612 221.48 146.422 219.645 147.276 217.768C145.142 218.28 142.966 218.749 140.748 219.176C138.614 219.603 136.481 219.987 134.348 220.328C138.785 222.632 141.644 225.363 142.924 228.52ZM178.862 205.864C177.155 205.864 176.302 204.968 176.302 203.176C176.302 202.237 176.814 201.213 177.838 200.104C178.435 199.421 178.947 198.867 179.374 198.44C179.886 198.013 180.355 197.715 180.782 197.544C183.854 196.093 185.688 195.368 186.286 195.368C186.542 195.368 186.67 195.453 186.67 195.624C186.67 195.88 185.688 197.117 183.726 199.336C183.64 199.421 183.47 199.805 183.214 200.488C182.958 201.085 182.488 202.024 181.806 203.304C181.038 205.011 180.056 205.864 178.862 205.864ZM171.182 246.952C166.83 246.952 164.654 244.776 164.654 240.424C164.654 237.181 165.507 233.085 167.214 228.136C166.872 228.733 166.488 229.331 166.062 229.928C165.72 230.525 165.336 231.123 164.91 231.72C163.8 233.597 163.032 234.536 162.606 234.536C162.435 234.536 162.35 234.408 162.35 234.152C162.35 233.469 162.606 232.829 163.118 232.232C165.166 229.416 167.427 225.363 169.902 220.072C170.158 219.389 170.499 218.536 170.926 217.512C171.438 216.488 172.035 215.336 172.718 214.056C173.144 213.288 174.211 212.904 175.918 212.904C177.368 212.904 178.094 213.331 178.094 214.184C178.094 215.037 177.71 216.317 176.942 218.024C176.003 219.731 175.235 220.712 174.638 220.968C170.2 229.843 167.982 236.371 167.982 240.552C167.982 243.368 168.92 244.776 170.798 244.776C173.87 244.776 177.24 242.557 180.91 238.12C184.75 233.683 186.627 231.464 186.542 231.464C186.712 231.464 186.798 231.592 186.798 231.848C186.798 231.933 186.712 232.232 186.542 232.744C185.774 234.109 184.792 235.517 183.598 236.968C182.488 238.333 181.208 239.784 179.758 241.32C176.003 245.075 173.144 246.952 171.182 246.952ZM212.504 223.144C211.394 223.144 210.84 222.504 210.84 221.224C210.84 220.712 211.096 219.56 211.608 217.768C212.205 215.976 212.504 214.483 212.504 213.288C212.504 209.448 210.968 207.528 207.896 207.528C206.36 207.528 204.397 208.125 202.008 209.32C199.704 210.6 198.466 211.24 198.296 211.24C197.954 211.24 197.784 211.112 197.784 210.856C197.784 209.661 199.448 208.552 202.776 207.528C205.336 206.675 207.512 206.248 209.304 206.248C213.912 206.248 216.216 209.021 216.216 214.568C216.216 216.104 215.917 217.768 215.32 219.56C214.552 221.949 213.613 223.144 212.504 223.144ZM192.792 252.584C186.904 252.584 183.96 249.256 183.96 242.6C183.96 235.944 186.136 229.117 190.488 222.12C195.522 214.184 201.112 210.216 207.256 210.216C208.194 210.216 208.664 210.387 208.664 210.728C208.664 210.984 207.81 211.624 206.104 212.648C201.922 215.208 198.21 219.091 194.968 224.296C191.469 229.843 189.72 234.835 189.72 239.272C189.72 246.184 192.322 249.64 197.528 249.64C200.77 249.64 204.354 248.36 208.28 245.8C209.986 244.691 211.565 243.539 213.016 242.344C214.552 241.064 215.917 239.699 217.112 238.248C217.538 237.736 218.05 237.096 218.648 236.328C219.245 235.56 219.885 234.621 220.568 233.512C221.336 232.232 221.933 231.592 222.36 231.592C222.36 231.592 222.445 231.677 222.616 231.848C222.616 232.104 222.232 232.829 221.464 234.024C220.013 236.243 218.264 238.419 216.216 240.552C214.168 242.6 211.778 244.563 209.048 246.44C203.074 250.536 197.656 252.584 192.792 252.584ZM254.645 255.144C250.634 255.144 245.983 252.84 240.693 248.232C236.682 244.733 233.098 240.723 229.941 236.2C229.087 237.565 228.277 238.888 227.509 240.168C226.741 241.448 225.93 242.771 225.077 244.136C223.029 247.379 221.066 249.768 219.189 251.304C218.506 253.267 217.183 254.248 215.221 254.248C214.282 254.248 213.813 253.907 213.813 253.224C213.813 250.835 216.287 243.283 221.237 230.568L218.805 230.824C218.293 230.824 218.037 230.739 218.037 230.568C218.037 229.373 219.317 228.733 221.877 228.648C223.242 225.405 224.693 221.907 226.229 218.152C227.765 214.312 229.429 210.301 231.221 206.12C227.295 208.253 224.479 209.32 222.773 209.32C222.431 209.32 222.261 209.192 222.261 208.936C222.261 208.083 222.858 207.4 224.053 206.888C224.223 206.717 224.479 206.589 224.821 206.504C225.247 206.333 225.717 206.12 226.229 205.864C228.703 204.669 230.922 203.347 232.885 201.896C233.994 199.421 235.402 196.307 237.109 192.552C238.815 188.712 240.821 184.232 243.125 179.112C243.637 178.003 244.234 176.68 244.917 175.144C245.599 173.608 246.41 171.773 247.349 169.64C248.287 167.677 250.293 166.696 253.365 166.696C254.986 166.696 255.797 167.165 255.797 168.104C255.797 168.445 255.413 169.597 254.645 171.56C253.45 174.803 251.829 178.387 249.781 182.312C247.818 186.237 245.429 190.461 242.613 194.984C242.186 195.581 241.631 196.349 240.949 197.288C240.266 198.227 239.541 199.336 238.773 200.616C238.261 201.469 237.663 202.579 236.981 203.944C236.383 205.309 235.615 206.845 234.677 208.552C232.543 212.733 229.471 219.261 225.461 228.136C227.167 226.515 228.277 225.704 228.789 225.704C229.471 225.704 230.069 226.173 230.581 227.112C230.751 227.027 231.135 226.899 231.733 226.728C232.415 226.472 233.269 226.131 234.293 225.704C234.634 225.021 235.061 224.211 235.573 223.272C236.17 222.248 236.853 221.053 237.621 219.688C238.645 217.896 239.754 216.147 240.949 214.44C242.229 212.733 243.594 211.069 245.045 209.448C249.055 204.925 252.341 202.664 254.901 202.664C257.631 202.664 258.997 205.523 258.997 211.24C258.997 218.323 251.231 223.656 235.701 227.24C235.189 228.264 234.293 229.672 233.013 231.464C235.658 236.157 238.858 240.467 242.613 244.392C247.562 249.597 251.999 252.2 255.925 252.2C257.631 252.2 259.082 251.603 260.277 250.408C261.642 249.213 262.367 248.616 262.453 248.616C262.794 248.616 262.965 248.787 262.965 249.128C262.965 249.299 262.879 249.64 262.709 250.152C260.661 253.48 257.973 255.144 254.645 255.144ZM236.853 225.064C247.434 221.224 252.725 216.36 252.725 210.472C252.725 208.083 252.17 206.888 251.061 206.888C249.183 206.888 245.514 211.027 240.053 219.304C239.711 219.901 239.242 220.712 238.645 221.736C238.133 222.675 237.535 223.784 236.853 225.064ZM219.701 248.744C222.773 245.16 225.887 240.509 229.045 234.792C228.703 234.195 228.319 233.469 227.893 232.616C227.466 231.763 226.954 230.739 226.357 229.544L224.949 229.672C224.095 231.805 223.242 234.451 222.389 237.608C221.535 240.765 220.639 244.477 219.701 248.744ZM270.775 251.432C264.716 251.432 261.687 247.507 261.687 239.656C261.687 238.461 261.729 237.181 261.815 235.816C261.985 234.365 262.241 232.829 262.583 231.208C262.241 230.952 261.9 230.611 261.559 230.184C261.217 229.672 260.876 229.075 260.535 228.392C260.876 228.477 261.217 228.648 261.559 228.904C261.985 229.075 262.497 229.245 263.095 229.416C264.033 225.149 266.593 220.925 270.775 216.744C275.297 212.136 279.564 209.832 283.575 209.832C284.513 209.832 284.983 209.96 284.983 210.216C284.983 210.387 284.385 210.813 283.191 211.496C280.033 213.203 277.089 215.848 274.359 219.432C271.457 223.016 269.367 226.6 268.087 230.184C268.172 230.269 268.215 230.312 268.215 230.312C268.215 230.312 268.257 230.355 268.343 230.44C272.439 230.44 276.705 228.477 281.143 224.552C285.58 220.627 287.799 216.616 287.799 212.52C287.799 211.325 287.457 210.173 286.775 209.064C286.177 208.04 285.239 207.528 283.959 207.528C282.337 207.528 280.417 208.168 278.199 209.448C276.065 210.813 274.871 211.496 274.615 211.496C274.444 211.496 274.359 211.453 274.359 211.368C274.359 210.344 275.852 209.235 278.839 208.04C281.399 207.016 283.404 206.504 284.855 206.504C286.903 206.504 288.524 207.059 289.719 208.168C291.084 209.277 291.767 210.813 291.767 212.776C291.767 217.299 288.823 221.693 282.935 225.96C277.644 229.715 272.524 231.805 267.575 232.232C266.892 234.28 266.551 236.243 266.551 238.12C266.551 245.203 269.111 248.744 274.231 248.744C278.156 248.744 282.252 247.037 286.519 243.624C290.103 240.808 293.089 237.395 295.479 233.384C296.247 232.189 296.887 231.592 297.399 231.592C297.484 231.592 297.527 231.677 297.527 231.848C297.527 232.189 297.185 232.957 296.503 234.152C293.857 238.333 290.145 242.173 285.367 245.672C280.161 249.512 275.297 251.432 270.775 251.432ZM301.357 250.664C300.759 250.664 299.991 250.408 299.053 249.896C298.114 249.213 297.645 248.659 297.645 248.232C297.901 247.72 298.114 247.165 298.285 246.568C298.541 245.971 298.839 245.373 299.181 244.776C300.717 241.533 302.125 238.291 303.405 235.048C304.685 231.805 305.751 228.563 306.605 225.32C307.458 222.248 307.885 218.621 307.885 214.44C307.714 215.293 307.159 216.573 306.221 218.28C305.367 219.901 304.215 221.949 302.765 224.424C301.399 226.813 300.162 228.819 299.053 230.44C298.029 231.976 297.175 233.213 296.493 234.152C296.493 234.237 296.407 234.28 296.237 234.28C295.81 234.28 295.597 234.109 295.597 233.768C295.597 233.597 295.639 233.469 295.725 233.384C296.322 232.445 296.919 231.464 297.517 230.44C298.199 229.416 298.925 228.307 299.693 227.112C301.997 223.357 303.831 219.987 305.197 217C306.562 214.013 307.543 211.368 308.141 209.064C308.653 206.845 309.506 205.736 310.701 205.736C312.066 205.736 312.749 207.443 312.749 210.856C312.749 217 310.786 224.552 306.861 233.512C311.469 227.709 314.669 223.869 316.461 221.992C321.325 216.787 325.122 214.184 327.853 214.184C330.583 214.184 331.949 215.976 331.949 219.56C331.949 222.035 331.266 224.211 329.901 226.088C328.279 228.477 326.786 229.672 325.421 229.672C325.165 229.672 325.037 229.501 325.037 229.16C325.037 229.16 325.506 228.093 326.445 225.96C327.383 223.827 327.853 221.992 327.853 220.456C327.853 218.152 327.127 217 325.677 217C323.714 217 320.386 219.603 315.693 224.808C311.938 229.075 309.207 232.701 307.501 235.688C307.415 235.944 307.031 236.968 306.349 238.76C305.666 240.552 304.642 243.197 303.277 246.696C303.106 247.208 302.893 247.805 302.637 248.488C302.466 249.085 302.253 249.725 301.997 250.408C301.826 250.579 301.613 250.664 301.357 250.664ZM346.323 250.536C342.312 250.536 338.685 248.872 335.443 245.544C332.285 242.131 330.707 238.419 330.707 234.408C330.707 231.763 331.389 230.44 332.755 230.44C333.608 230.44 334.461 231.08 335.315 232.36C337.875 226.387 341.501 219.645 346.195 212.136C349.181 207.528 352.68 205.224 356.691 205.224C357.544 205.224 358.525 205.523 359.635 206.12C360.829 206.803 361.427 207.528 361.427 208.296C361.427 208.893 360.872 209.192 359.763 209.192C359.677 209.192 359.549 209.192 359.379 209.192C359.208 209.192 358.995 209.149 358.739 209.064H357.715C355.752 209.064 354.088 209.619 352.723 210.728C351.272 211.923 350.547 213.416 350.547 215.208C350.547 215.891 350.675 216.616 350.931 217.384C351.443 219.091 351.955 220.797 352.467 222.504C352.979 224.211 353.491 225.917 354.003 227.624C354.6 229.672 355.027 231.592 355.283 233.384C355.624 235.091 355.795 236.669 355.795 238.12C358.099 237.779 360.061 236.925 361.683 235.56C362.707 234.707 364.072 233 365.779 230.44C366.035 230.099 366.291 229.928 366.547 229.928C366.803 229.928 366.931 230.099 366.931 230.44C366.931 230.781 366.845 231.08 366.675 231.336C363.773 236.2 360.189 239.059 355.923 239.912C355.667 242.899 354.771 245.373 353.235 247.336C351.613 249.469 349.309 250.536 346.323 250.536ZM350.547 239.784C350.632 239.443 350.675 239.144 350.675 238.888C350.675 238.632 350.675 238.333 350.675 237.992C350.675 236.883 350.461 235.389 350.035 233.512C349.693 231.549 349.181 229.16 348.499 226.344C347.219 220.968 346.749 217.384 347.091 215.592C344.872 217.896 341.245 224.04 336.211 234.024C337.832 234.877 339.197 235.645 340.307 236.328C341.501 236.925 342.44 237.395 343.123 237.736C345.683 238.931 348.157 239.613 350.547 239.784ZM343.635 246.312C347.048 246.312 349.309 244.648 350.419 241.32C343.592 241.32 338.387 239.912 334.803 237.096C334.973 239.059 335.997 241.064 337.875 243.112C339.752 245.245 341.672 246.312 343.635 246.312Z" fill="url(#paint0_linear_224_57)"/>
<defs>
<linearGradient id="paint0_linear_224_57" x1="-20" y1="-22" x2="661.944" y2="337.002" gradientUnits="userSpaceOnUse">
<stop stop-color="#B379FF"/>
<stop offset="1" stop-color="#6D27C8"/>
</linearGradient>
</defs>
</svg>
