<svg width="16" height="16" viewBox="0 0 16 16" fill="none" xmlns="http://www.w3.org/2000/svg">
<path fill-rule="evenodd" clip-rule="evenodd" d="M6.71079 0.789575C7.28566 -0.263192 8.71473 -0.263192 9.2896 0.789575L11.0483 4.01492C11.2101 4.31208 11.4911 4.51412 11.8105 4.56576L14.7317 5.03507C16.0041 5.23982 16.4503 6.95034 15.459 7.82372L13.3307 9.69913C13.184 9.82849 13.0727 9.99736 13.0083 10.1881C12.9438 10.3789 12.9287 10.5845 12.9645 10.7836L13.5607 14.114C13.794 15.4187 12.5063 16.4316 11.4017 15.8137L8.49586 14.1856C8.34301 14.1001 8.1729 14.0554 8.00019 14.0554C7.82749 14.0554 7.65737 14.1001 7.50453 14.1856L4.59868 15.8137C3.49408 16.4325 2.20638 15.4187 2.43973 14.114L3.03589 10.7836C3.07166 10.5845 3.05655 10.3789 2.99214 10.1881C2.92772 9.99736 2.81636 9.82849 2.66968 9.69913L0.540541 7.82372C-0.449935 6.95034 -0.00451867 5.23982 1.26956 5.03507L4.19074 4.56576C4.34839 4.54032 4.49865 4.47754 4.63044 4.38204C4.76222 4.28654 4.87215 4.16077 4.95212 4.01401L6.71079 0.789575ZM8.18415 1.47179C8.16541 1.43757 8.13856 1.40918 8.10628 1.38945C8.074 1.36972 8.03742 1.35933 8.00019 1.35933C7.96297 1.35933 7.92639 1.36972 7.89411 1.38945C7.86183 1.40918 7.83498 1.43757 7.81624 1.47179L6.05672 4.69713C5.88061 5.01971 5.63865 5.29611 5.34871 5.50592C5.05876 5.71573 4.72823 5.8536 4.38151 5.90935L1.46033 6.37866C1.41966 6.38517 1.38162 6.40406 1.35083 6.43307C1.32004 6.46208 1.29781 6.49996 1.28682 6.54212C1.27583 6.58429 1.27655 6.62893 1.2889 6.67067C1.30126 6.7124 1.32471 6.74944 1.35643 6.7773L3.48472 8.65271C3.80737 8.93709 4.0524 9.30834 4.19426 9.72776C4.33612 10.1472 4.36961 10.5994 4.29123 11.0373L3.69507 14.3677C3.68758 14.4096 3.69135 14.4529 3.70593 14.4926C3.72052 14.5323 3.74534 14.5668 3.77754 14.5921C3.80975 14.6175 3.84802 14.6327 3.88797 14.6359C3.92792 14.6392 3.96792 14.6304 4.00337 14.6105L6.90922 12.9834C7.24561 12.795 7.62005 12.6965 8.00019 12.6965C8.38034 12.6965 8.75478 12.795 9.09117 12.9834L11.997 14.6105C12.0325 14.6304 12.0725 14.6392 12.1124 14.6359C12.1524 14.6327 12.1906 14.6175 12.2228 14.5921C12.255 14.5668 12.2799 14.5323 12.2945 14.4926C12.309 14.4529 12.3128 14.4096 12.3053 14.3677L11.7092 11.0373C11.6308 10.5994 11.6643 10.1472 11.8061 9.72776C11.948 9.30834 12.193 8.93709 12.5157 8.65271L14.6448 6.7773C14.6765 6.74938 14.7 6.71227 14.7123 6.67047C14.7246 6.62867 14.7253 6.58396 14.7142 6.54178C14.7031 6.49959 14.6807 6.46172 14.6498 6.43277C14.6189 6.40382 14.5808 6.38503 14.5401 6.37866L11.6189 5.90935C11.2721 5.8535 10.9415 5.71549 10.6516 5.50552C10.3616 5.29555 10.1197 5.01898 9.94367 4.69623L8.18415 1.47179Z" fill="white"/>
</svg>
