<svg width="24" height="24" viewBox="0 0 24 24" fill="none" xmlns="http://www.w3.org/2000/svg">
<path fill-rule="evenodd" clip-rule="evenodd" d="M10.0662 1.18436C10.9285 -0.394787 13.0721 -0.394787 13.9344 1.18436L16.5724 6.02238C16.8151 6.46813 17.2367 6.77118 17.7158 6.84864L22.0975 7.5526C24.0061 7.85974 24.6755 10.4255 23.1885 11.7356L19.9961 14.5487C19.776 14.7427 19.609 14.996 19.5124 15.2822C19.4158 15.5683 19.3931 15.8768 19.4467 16.1754L20.341 21.1711C20.691 23.128 18.7595 24.6474 17.1026 23.7205L12.7438 21.2784C12.5145 21.1501 12.2593 21.0831 12.0003 21.0831C11.7412 21.0831 11.4861 21.1501 11.2568 21.2784L6.89802 23.7205C5.24112 24.6487 3.30957 23.128 3.6596 21.1711L4.55384 16.1754C4.6075 15.8768 4.58483 15.5683 4.48821 15.2822C4.39158 14.996 4.22455 14.7427 4.00452 14.5487L0.810811 11.7356C-0.674902 10.4255 -0.006778 7.85974 1.90434 7.5526L6.28611 6.84864C6.52258 6.81049 6.74798 6.71631 6.94566 6.57306C7.14333 6.42981 7.30823 6.24115 7.42818 6.02102L10.0662 1.18436ZM12.2762 2.20768C12.2481 2.15636 12.2078 2.11377 12.1594 2.08417C12.111 2.05457 12.0561 2.039 12.0003 2.039C11.9444 2.039 11.8896 2.05457 11.8412 2.08417C11.7927 2.11377 11.7525 2.15636 11.7244 2.20768L9.08507 7.0457C8.82091 7.52957 8.45798 7.94416 8.02306 8.25887C7.58815 8.57359 7.09235 8.7804 6.57226 8.86403L2.19049 9.56799C2.12948 9.57775 2.07244 9.6061 2.02625 9.64961C1.98006 9.69312 1.94671 9.74994 1.93022 9.81318C1.91374 9.87643 1.91483 9.9434 1.93336 10.006C1.95189 10.0686 1.98707 10.1242 2.03464 10.1659L5.22707 12.9791C5.71106 13.4056 6.07861 13.9625 6.29139 14.5916C6.50418 15.2208 6.55441 15.8991 6.43685 16.5559L5.54261 21.5516C5.53137 21.6144 5.53702 21.6793 5.5589 21.7388C5.58078 21.7984 5.61801 21.8502 5.66632 21.8882C5.71462 21.9262 5.77203 21.949 5.83195 21.9539C5.89187 21.9588 5.95188 21.9456 6.00506 21.9158L10.3638 19.475C10.8684 19.1925 11.4301 19.0448 12.0003 19.0448C12.5705 19.0448 13.1322 19.1925 13.6367 19.475L17.9955 21.9158C18.0487 21.9456 18.1087 21.9588 18.1686 21.9539C18.2286 21.949 18.286 21.9262 18.3343 21.8882C18.3826 21.8502 18.4198 21.7984 18.4417 21.7388C18.4636 21.6793 18.4692 21.6144 18.458 21.5516L17.5637 16.5559C17.4462 15.8991 17.4964 15.2208 17.7092 14.5916C17.922 13.9625 18.2895 13.4056 18.7735 12.9791L21.9672 10.1659C22.0148 10.1241 22.05 10.0684 22.0684 10.0057C22.0869 9.943 22.0879 9.87595 22.0713 9.81266C22.0546 9.74938 22.0211 9.69258 21.9748 9.64916C21.9284 9.60573 21.8712 9.57754 21.8101 9.56799L17.4283 8.86403C16.9081 8.78025 16.4122 8.57323 15.9773 8.25828C15.5424 7.94332 15.1795 7.52846 14.9155 7.04434L12.2762 2.20768Z" fill="black"/>
</svg>
